<?xml version="1.0" encoding="UTF-8"?>
<svg xmlns="http://www.w3.org/2000/svg" xmlns:xlink="http://www.w3.org/1999/xlink" width="375pt" height="374.999991pt" viewBox="0 0 375 374.999991" version="1.2">
<g id="surface1">
<rect x="0" y="0" width="375" height="374.999991" style="fill:rgb(5.099487%,12.548828%,23.139954%);fill-opacity:1;stroke:none;"/>
<path style=" stroke:none;fill-rule:nonzero;fill:rgb(100%,100%,100%);fill-opacity:1;" d="M 203.296875 51.511719 C 200.992188 51.511719 198.691406 51.566406 196.390625 51.679688 C 194.089844 51.792969 191.792969 51.964844 189.5 52.1875 C 187.207031 52.414062 184.917969 52.695312 182.640625 53.035156 C 180.359375 53.375 178.089844 53.765625 175.832031 54.214844 C 173.570312 54.667969 171.324219 55.171875 169.089844 55.730469 C 166.855469 56.289062 164.632812 56.90625 162.429688 57.574219 C 160.226562 58.242188 158.039062 58.964844 155.867188 59.742188 C 153.699219 60.515625 151.550781 61.347656 149.421875 62.226562 C 147.292969 63.109375 145.1875 64.042969 143.105469 65.027344 C 141.019531 66.011719 138.964844 67.050781 136.929688 68.136719 C 134.898438 69.222656 132.894531 70.355469 130.917969 71.542969 C 128.941406 72.726562 126.996094 73.957031 125.082031 75.238281 C 123.164062 76.519531 121.28125 77.84375 119.429688 79.21875 C 117.582031 80.589844 115.765625 82.007812 113.984375 83.46875 C 112.203125 84.929688 110.457031 86.433594 108.75 87.980469 C 107.042969 89.53125 105.375 91.117188 103.746094 92.746094 C 102.117188 94.375 100.527344 96.042969 98.980469 97.75 C 97.433594 99.457031 95.929688 101.203125 94.46875 102.984375 C 93.007812 104.765625 91.589844 106.582031 90.214844 108.433594 C 88.84375 110.28125 87.519531 112.164062 86.238281 114.082031 C 84.957031 115.996094 83.726562 117.941406 82.539062 119.917969 C 81.355469 121.894531 80.222656 123.898438 79.132812 125.933594 C 78.046875 127.964844 77.011719 130.019531 76.027344 132.105469 C 75.042969 134.1875 74.109375 136.292969 73.226562 138.421875 C 72.34375 140.550781 71.515625 142.699219 70.742188 144.867188 C 69.964844 147.039062 69.242188 149.226562 68.574219 151.429688 C 67.902344 153.636719 67.289062 155.855469 66.730469 158.089844 C 66.171875 160.324219 65.664062 162.574219 65.214844 164.832031 C 64.765625 167.09375 64.371094 169.363281 64.035156 171.640625 C 63.695312 173.921875 63.414062 176.207031 63.1875 178.5 C 62.960938 180.792969 62.792969 183.089844 62.679688 185.390625 C 62.566406 187.691406 62.511719 189.996094 62.511719 192.296875 C 62.511719 194.601562 62.566406 196.90625 62.679688 199.207031 C 62.792969 201.507812 62.960938 203.804688 63.1875 206.097656 C 63.414062 208.390625 63.695312 210.675781 64.035156 212.957031 C 64.371094 215.234375 64.765625 217.503906 65.214844 219.765625 C 65.664062 222.023438 66.171875 224.273438 66.730469 226.507812 C 67.289062 228.742188 67.902344 230.960938 68.574219 233.167969 C 69.242188 235.371094 69.964844 237.558594 70.742188 239.726562 C 71.515625 241.898438 72.34375 244.046875 73.226562 246.175781 C 74.109375 248.304688 75.042969 250.410156 76.027344 252.492188 C 77.011719 254.574219 78.046875 256.632812 79.132812 258.664062 C 80.222656 260.699219 81.355469 262.703125 82.539062 264.679688 C 83.726562 266.652344 84.957031 268.601562 86.238281 270.515625 C 87.519531 272.433594 88.84375 274.316406 90.214844 276.164062 C 91.589844 278.015625 93.007812 279.832031 94.46875 281.613281 C 95.929688 283.394531 97.433594 285.136719 98.980469 286.84375 C 100.527344 288.554688 102.117188 290.222656 103.746094 291.851562 C 105.375 293.480469 107.042969 295.066406 108.75 296.613281 C 110.457031 298.164062 112.203125 299.667969 113.984375 301.128906 C 115.765625 302.589844 117.582031 304.007812 119.429688 305.378906 C 121.28125 306.753906 123.164062 308.078125 125.082031 309.359375 C 126.996094 310.640625 128.941406 311.871094 130.917969 313.054688 C 132.894531 314.242188 134.898438 315.375 136.929688 316.460938 C 138.964844 317.546875 141.019531 318.582031 143.105469 319.570312 C 145.1875 320.554688 147.292969 321.488281 149.421875 322.371094 C 151.550781 323.25 153.699219 324.078125 155.867188 324.855469 C 158.039062 325.632812 160.226562 326.355469 162.429688 327.023438 C 164.632812 327.691406 166.855469 328.308594 169.089844 328.867188 C 171.324219 329.425781 173.570312 329.929688 175.832031 330.378906 C 178.089844 330.832031 180.359375 331.222656 182.640625 331.5625 C 184.917969 331.898438 187.207031 332.183594 189.5 332.40625 C 191.792969 332.632812 194.089844 332.804688 196.390625 332.917969 C 198.691406 333.03125 200.992188 333.085938 203.296875 333.085938 C 205.601562 333.085938 207.90625 333.03125 210.207031 332.917969 C 212.507812 332.804688 214.804688 332.632812 217.097656 332.40625 C 219.390625 332.183594 221.675781 331.898438 223.957031 331.5625 C 226.234375 331.222656 228.503906 330.832031 230.765625 330.378906 C 233.023438 329.929688 235.269531 329.425781 237.507812 328.867188 C 239.742188 328.308594 241.960938 327.691406 244.167969 327.023438 C 246.371094 326.355469 248.558594 325.632812 250.726562 324.855469 C 252.898438 324.078125 255.046875 323.25 257.175781 322.371094 C 259.304688 321.488281 261.410156 320.554688 263.492188 319.570312 C 265.574219 318.582031 267.632812 317.546875 269.664062 316.460938 C 271.695312 315.375 273.699219 314.242188 275.675781 313.054688 C 277.652344 311.871094 279.597656 310.640625 281.515625 309.359375 C 283.429688 308.078125 285.3125 306.753906 287.164062 305.378906 C 289.015625 304.007812 290.832031 302.589844 292.613281 301.128906 C 294.394531 299.667969 296.136719 298.164062 297.84375 296.613281 C 299.550781 295.066406 301.21875 293.480469 302.847656 291.851562 C 304.480469 290.222656 306.066406 288.554688 307.613281 286.84375 C 309.160156 285.136719 310.667969 283.394531 312.128906 281.613281 C 313.589844 279.832031 315.007812 278.015625 316.378906 276.164062 C 317.75 274.316406 319.078125 272.433594 320.359375 270.515625 C 321.636719 268.601562 322.871094 266.652344 324.054688 264.679688 C 325.238281 262.703125 326.375 260.699219 327.460938 258.664062 C 328.546875 256.632812 329.582031 254.574219 330.566406 252.492188 C 331.554688 250.410156 332.488281 248.304688 333.367188 246.175781 C 334.25 244.046875 335.078125 241.898438 335.855469 239.726562 C 336.632812 237.558594 337.355469 235.371094 338.023438 233.167969 C 338.691406 230.960938 339.304688 228.742188 339.867188 226.507812 C 340.425781 224.273438 340.929688 222.023438 341.378906 219.765625 C 341.828125 217.503906 342.222656 215.234375 342.5625 212.957031 C 342.898438 210.675781 343.179688 208.390625 343.40625 206.097656 C 343.632812 203.804688 343.800781 201.507812 343.914062 199.207031 C 344.027344 196.90625 344.085938 194.601562 344.085938 192.296875 C 344.085938 189.996094 344.027344 187.691406 343.914062 185.390625 C 343.800781 183.089844 343.632812 180.792969 343.40625 178.5 C 343.179688 176.207031 342.898438 173.921875 342.5625 171.640625 C 342.222656 169.363281 341.828125 167.09375 341.378906 164.832031 C 340.929688 162.574219 340.425781 160.324219 339.867188 158.089844 C 339.304688 155.855469 338.691406 153.636719 338.023438 151.429688 C 337.355469 149.226562 336.632812 147.039062 335.855469 144.867188 C 335.078125 142.699219 334.25 140.550781 333.367188 138.421875 C 332.488281 136.292969 331.554688 134.1875 330.566406 132.105469 C 329.582031 130.019531 328.546875 127.964844 327.460938 125.933594 C 326.375 123.898438 325.238281 121.894531 324.054688 119.917969 C 322.871094 117.941406 321.636719 115.996094 320.359375 114.082031 C 319.078125 112.164062 317.75 110.28125 316.378906 108.433594 C 315.007812 106.582031 313.589844 104.765625 312.128906 102.984375 C 310.667969 101.203125 309.160156 99.457031 307.613281 97.75 C 306.066406 96.042969 304.480469 94.375 302.847656 92.746094 C 301.21875 91.117188 299.550781 89.53125 297.84375 87.980469 C 296.136719 86.433594 294.394531 84.929688 292.613281 83.46875 C 290.832031 82.007812 289.015625 80.589844 287.164062 79.21875 C 285.3125 77.84375 283.429688 76.519531 281.515625 75.238281 C 279.597656 73.957031 277.652344 72.726562 275.675781 71.542969 C 273.699219 70.355469 271.695312 69.222656 269.664062 68.136719 C 267.632812 67.050781 265.574219 66.011719 263.492188 65.027344 C 261.410156 64.042969 259.304688 63.109375 257.175781 62.226562 C 255.046875 61.347656 252.898438 60.515625 250.726562 59.742188 C 248.558594 58.964844 246.371094 58.242188 244.167969 57.574219 C 241.960938 56.90625 239.742188 56.289062 237.507812 55.730469 C 235.269531 55.171875 233.023438 54.667969 230.765625 54.214844 C 228.503906 53.765625 226.234375 53.375 223.957031 53.035156 C 221.675781 52.695312 219.390625 52.414062 217.097656 52.1875 C 214.804688 51.964844 212.507812 51.792969 210.207031 51.679688 C 207.90625 51.566406 205.601562 51.511719 203.296875 51.511719 Z M 203.296875 51.511719 "/>
<path style=" stroke:none;fill-rule:nonzero;fill:rgb(5.099487%,12.548828%,23.139954%);fill-opacity:1;" d="M 417.6875 283.394531 C 360.449219 283.394531 306.550781 261.117188 266.105469 220.585938 C 225.578125 180.140625 203.296875 126.246094 203.296875 69.003906 C 203.296875 11.765625 225.578125 -42.132812 266.105469 -82.578125 C 306.550781 -123.105469 360.449219 -145.386719 417.6875 -145.386719 C 474.929688 -145.386719 528.824219 -123.105469 569.269531 -82.578125 C 609.800781 -42.046875 632.078125 11.765625 632.078125 69.003906 C 632.078125 126.246094 609.800781 180.140625 569.269531 220.585938 C 528.824219 261.117188 474.929688 283.394531 417.6875 283.394531 Z M 417.6875 -132.53125 C 363.875 -132.53125 313.234375 -111.539062 275.191406 -73.492188 C 237.144531 -35.449219 216.152344 15.195312 216.152344 69.003906 C 216.152344 122.816406 237.144531 173.457031 275.191406 211.503906 C 313.234375 249.550781 363.875 270.542969 417.6875 270.542969 C 471.5 270.542969 522.140625 249.550781 560.1875 211.503906 C 598.234375 173.457031 619.226562 122.816406 619.226562 69.003906 C 619.226562 15.195312 598.234375 -35.449219 560.1875 -73.492188 C 522.140625 -111.539062 471.5 -132.53125 417.6875 -132.53125 Z M 417.6875 -132.53125 "/>
<path style=" stroke:none;fill-rule:nonzero;fill:rgb(5.099487%,12.548828%,23.139954%);fill-opacity:1;" d="M -47.214844 279.117188 C -103.316406 267.777344 -151.734375 235.265625 -183.347656 187.527344 C -215.066406 139.855469 -226.226562 82.613281 -214.886719 26.507812 C -203.546875 -29.597656 -171.035156 -78.015625 -123.296875 -109.628906 C -75.625 -141.34375 -18.382812 -152.503906 37.722656 -141.167969 C 93.828125 -129.828125 142.246094 -97.316406 173.859375 -49.574219 C 205.558594 -1.820312 216.738281 55.339844 205.398438 111.445312 C 194.058594 167.550781 161.546875 215.964844 113.808594 247.582031 C 66.136719 279.296875 8.890625 290.457031 -47.214844 279.117188 Z M 35.179688 -128.570312 C -17.566406 -139.226562 -71.363281 -128.683594 -116.191406 -98.925781 C -161.019531 -69.171875 -191.628906 -23.691406 -202.289062 29.054688 C -212.949219 81.796875 -202.402344 135.59375 -172.648438 180.421875 C -142.890625 225.25 -97.414062 255.859375 -44.667969 266.519531 C 8.078125 277.179688 61.875 266.632812 106.703125 236.878906 C 151.53125 207.121094 182.140625 161.644531 192.800781 108.898438 C 203.460938 56.152344 192.914062 2.355469 163.15625 -42.472656 C 133.402344 -87.300781 87.921875 -117.910156 35.179688 -128.570312 Z M 35.179688 -128.570312 "/>
<path style=" stroke:none;fill-rule:nonzero;fill:rgb(5.099487%,12.548828%,23.139954%);fill-opacity:1;" d="M 160.695312 642.941406 C 104.589844 631.601562 56.171875 599.085938 24.558594 551.347656 C -7.15625 503.675781 -18.316406 446.433594 -6.980469 390.328125 C 4.359375 334.222656 36.871094 285.808594 84.613281 254.191406 C 132.285156 222.476562 189.527344 211.316406 245.632812 222.65625 C 301.738281 233.992188 350.152344 266.507812 381.769531 314.246094 C 413.464844 362.003906 424.644531 419.160156 413.304688 475.265625 C 401.964844 531.371094 369.453125 579.789062 321.714844 611.402344 C 274.042969 643.117188 216.800781 654.277344 160.695312 642.941406 Z M 243.085938 235.253906 C 190.339844 224.59375 136.542969 235.140625 91.714844 264.894531 C 46.886719 294.652344 16.277344 340.128906 5.617188 392.875 C -5.039062 445.621094 5.503906 499.417969 35.261719 544.246094 C 65.015625 589.074219 110.496094 619.683594 163.242188 630.34375 C 215.984375 641 269.78125 630.457031 314.609375 600.699219 C 359.4375 570.945312 390.046875 525.464844 400.707031 472.71875 C 411.367188 419.976562 400.820312 366.179688 371.066406 321.351562 C 341.308594 276.523438 295.832031 245.914062 243.085938 235.253906 Z M 243.085938 235.253906 "/>
</g>
</svg>
